<?xml version="1.0"?>
<svg xmlns="http://www.w3.org/2000/svg" xmlns:xlink="http://www.w3.org/1999/xlink" version="1.1" id="Capa_1" x="0px" y="0px" width="512px" height="512px" viewBox="0 0 512 512" style="enable-background:new 0 0 512 512;" xml:space="preserve" class=""><g><g>
	<path d="M256,0C114.609,0,0,114.609,0,256c0,141.391,114.609,256,256,256c141.391,0,256-114.609,256-256   C512,114.609,397.391,0,256,0z M256,472c-119.297,0-216-96.703-216-216S136.703,40,256,40s216,96.703,216,216S375.297,472,256,472z   " data-original="#000000" class="active-path" data-old_color="#000000" fill="#E40707"/>
	<path d="M256,176H128v160h128h128V176H256z M256,192h89.719L256,255.75L166.281,192H256z M144,196.531l54.5,36.859L144,292.812   V196.531z M256,320h-92.406l45.562-79.422L256,272.25l46.844-31.672L348.406,320H256z M368,292.812l-54.5-59.422l54.5-36.859   V292.812z" data-original="#000000" class="active-path" data-old_color="#000000" fill="#E40707"/>
</g></g> </svg>
