<?xml version="1.0" encoding="iso-8859-1"?>
<!-- Generator: Adobe Illustrator 19.0.0, SVG Export Plug-In . SVG Version: 6.00 Build 0)  -->
<svg version="1.1" id="Layer_1" xmlns="http://www.w3.org/2000/svg" xmlns:xlink="http://www.w3.org/1999/xlink" x="0px" y="0px"
	 viewBox="0 0 512.005 512.005" style="enable-background:new 0 0 512.005 512.005;" xml:space="preserve">
<g>
	<g>
		<path d="M502.124,184.596l-230.4-179.2c-4.625-3.593-10.172-5.393-15.718-5.393c-5.547,0-11.093,1.801-15.718,5.393l-230.4,179.2
			c-8.636,6.716-12.049,18.176-8.499,28.518c3.55,10.342,13.286,17.289,24.218,17.289h25.6v281.6h153.6v-204.8h102.4v204.8h153.6
			v-281.6h25.6c10.94,0,20.668-6.946,24.218-17.289C514.164,202.763,510.751,191.312,502.124,184.596z M435.205,204.803v281.6
			h-102.4v-179.2c0-14.14-11.46-25.6-25.6-25.6h-102.4c-14.14,0-25.6,11.46-25.6,25.6v179.2h-102.4v-281.6h-51.2l230.4-179.2
			l230.4,179.2H435.205z"/>
	</g>
</g>
<g>
</g>
<g>
</g>
<g>
</g>
<g>
</g>
<g>
</g>
<g>
</g>
<g>
</g>
<g>
</g>
<g>
</g>
<g>
</g>
<g>
</g>
<g>
</g>
<g>
</g>
<g>
</g>
<g>
</g>
</svg>
